<svg width="20" height="20" viewBox="0 0 20 20" fill="none" xmlns="http://www.w3.org/2000/svg">
<g id="publicon/social/24px">
<path id="icon/social/publicon/social/24px" fill-rule="evenodd" clip-rule="evenodd" d="M9.99996 1.66667C5.39996 1.66667 1.66663 5.4 1.66663 10C1.66663 14.6 5.39996 18.3333 9.99996 18.3333C14.6 18.3333 18.3333 14.6 18.3333 10C18.3333 5.4 14.6 1.66667 9.99996 1.66667ZM3.33329 10C3.33329 9.49167 3.39996 8.99167 3.50829 8.51667L7.49163 12.5V13.3333C7.49163 14.25 8.24163 15 9.15829 15V16.6083C5.88329 16.1917 3.33329 13.3917 3.33329 10ZM13.325 13.3333C14.075 13.3333 14.6916 13.825 14.9083 14.5C15.9916 13.3167 16.6666 11.7333 16.6666 10C16.6666 7.20833 14.9333 4.80833 12.4916 3.825V4.16667C12.4916 5.08333 11.7416 5.83333 10.825 5.83333H9.15829V7.5C9.15829 7.95833 8.78329 8.33333 8.32496 8.33333H6.65829V10H11.6583C12.1166 10 12.4916 10.375 12.4916 10.8333V13.3333H13.325Z" fill="black" fill-opacity="0.54"/>
</g>
</svg>
